<svg width="129" height="126" viewBox="0 0 129 126" fill="none" xmlns="http://www.w3.org/2000/svg">
<ellipse cx="65" cy="59.5" rx="42" ry="39.5" fill="#F8804F"/>
<g filter="url(#filter0_d_21_17)">
<path d="M65.1178 41.8328C64.6364 41.8328 64.5875 41.8702 64.392 41.9002C64.1212 41.9413 63.5834 41.9077 62.9967 41.9077C62.6921 41.9077 62.4589 41.9975 61.955 42.0162C61.7519 42.0236 61.4999 42.0611 61.1765 42.091C60.2889 42.1733 59.3487 42.3305 58.4461 42.5138C57.7391 42.656 57.0621 42.858 56.4453 42.9591C56.1144 43.0114 55.9376 43.0638 55.6894 43.1499C55.4412 43.2322 55.1403 43.2958 54.5123 43.5203C53.903 43.7373 53.2486 44.0703 52.85 44.3584C52.5905 44.5455 52.3197 44.5754 52.1091 44.6129C51.9549 44.6428 51.6992 44.901 51.4848 45.0207C51.2103 45.1704 50.8605 45.2489 50.5484 45.3126C50.4355 45.335 50.2851 45.4734 50.0933 45.5745C49.8827 45.6867 49.627 45.7803 49.4427 45.9037C49.2546 46.0309 49.1042 46.0384 48.935 46.0459C48.7582 46.1507 48.5476 46.2816 48.3257 46.4089C48.1226 46.5248 47.897 46.6184 47.6977 46.7381C46.9944 47.1647 46.2723 47.6249 45.5126 48.145C44.8169 48.6239 44.1324 49.1889 43.3125 49.7614C43.3276 50.0008 43.2937 50.027 43.2561 50.1093C43.1583 50.3264 42.9327 50.5097 42.7672 50.7155C42.7183 50.7754 42.6431 50.8614 42.5378 50.8726C42.4663 50.8801 42.4024 50.8801 42.3197 50.8128C42.2332 50.8652 42.1918 50.9288 42.1467 50.9998C42.0978 51.0747 42.0338 51.0934 41.9661 51.1271C41.6653 51.2805 41.5036 51.6434 41.2742 51.9053C41.1952 51.9951 41.1087 52.0138 41.0222 52.0026C40.9357 51.9914 40.8755 52.0887 40.8454 52.2533C40.8379 52.3094 40.774 52.3394 40.6724 52.3618C40.71 52.3992 40.7364 52.4591 40.804 52.4441C40.9206 52.4217 41.0335 52.3655 41.12 52.4254C41.1726 52.4628 41.1425 52.5751 41.041 52.6686C40.962 52.7435 40.8642 52.7958 40.7514 52.8407C40.6085 52.8931 40.5408 52.9043 40.4505 52.9792C40.3828 53.0316 40.3189 53.0578 40.3603 53.1214C40.4092 53.1887 40.5032 53.1737 40.5295 53.2823C40.5408 53.3384 40.4468 53.387 40.4129 53.4506C40.191 53.8734 40.0669 53.9932 39.8826 54.1353C39.7322 54.2513 39.484 54.2476 39.296 54.3748C39.2132 54.4309 39.2433 54.5394 39.0703 54.6704C39.0327 54.7003 39.0064 54.7116 38.9763 54.7116C38.9349 54.7116 38.8898 54.6929 38.8522 54.7265C38.6942 54.8725 38.54 55.0109 38.5551 55.1381C38.5664 55.2242 38.7243 55.1755 38.7394 55.3027C38.7469 55.3738 38.7243 55.4412 38.6905 55.516C38.6453 55.617 38.5739 55.7143 38.4046 55.8153V56.1708C38.3708 56.2381 38.3106 56.2718 38.3332 56.3467C38.4197 56.3242 38.5175 56.3467 38.525 56.429C38.5287 56.515 38.4761 56.5487 38.4122 56.5712C38.1038 56.6797 37.9458 56.8256 37.833 56.994C37.5509 57.4205 37.4118 57.9069 37.156 58.4794C37.0808 58.644 37.2501 58.7151 37.3591 58.5767C37.5284 58.3634 37.7089 58.1614 37.8067 57.7872C37.8255 57.7086 37.8856 57.6862 37.9308 57.7124C37.9684 57.7385 37.9571 57.8283 37.9157 57.9518C37.8556 58.1389 37.7315 58.4008 37.6186 58.6178C37.4795 58.8947 37.3253 59.0556 37.1711 59.1005C37.0319 59.1417 36.9078 59.2202 36.8364 59.3325C36.7461 59.4709 36.7461 59.6468 36.7085 59.8152C36.6747 59.9835 36.4791 60.107 36.4979 60.2118C36.5167 60.3091 36.5806 60.3839 36.5731 60.5111C36.5656 60.6608 36.5167 60.7094 36.4377 60.788C36.261 60.9601 36.1218 61.2781 36.1105 61.4802C36.1068 61.5326 36.1557 61.555 36.2309 61.5737C36.3099 61.5962 36.3437 61.6336 36.37 61.6748C36.4039 61.7271 36.3512 61.7795 36.3136 61.8843C36.2647 62.0115 36.2384 62.1425 36.2346 62.2697C36.2309 62.3483 36.291 62.4006 36.3324 62.4418C36.3926 62.5054 36.5129 62.4568 36.5017 62.5466C36.4904 62.6626 36.3475 62.7598 36.2234 62.8721C36.0767 63.003 35.8661 63.1826 35.8962 63.265C35.9338 63.3809 36.0052 63.482 35.9977 63.6054C35.9902 63.7065 35.9375 63.8075 35.915 63.901C35.8548 64.133 35.7984 64.3313 35.7833 64.567C35.7683 64.8439 35.7946 65.0609 35.8962 65.1133C35.9451 65.1395 36.0015 65.0834 36.0127 65.0048C36.0278 64.9188 36.024 64.829 36.0428 64.7392C36.0767 64.5633 36.1181 64.4174 36.2046 64.3051C36.2722 64.2153 36.3776 64.1854 36.4904 64.2415C36.5581 64.2752 36.5618 64.4062 36.5054 64.5259C36.4114 64.7167 36.2873 64.9075 36.1933 65.1657C36.1632 65.248 36.1481 65.2892 36.1444 65.3678C36.1444 65.4201 36.2008 65.3303 36.2459 65.3453C36.2835 65.3603 36.3136 65.3902 36.3023 65.5099C36.2911 65.611 36.2309 65.6895 36.0579 65.7831C35.8473 65.8953 35.7871 66.0375 35.7833 66.1423C35.7833 66.2545 35.8398 66.2508 35.8849 66.2658C35.93 66.2807 35.9526 66.2433 36.0052 66.2096C36.0579 66.176 36.1444 66.176 36.1857 66.2508C36.2158 66.3107 36.2046 66.3705 36.1632 66.4379C36.0917 66.5501 36.0428 66.6699 36.0466 66.7858C36.0504 66.8719 36.0541 66.958 36.1632 66.9954C36.2497 67.0253 36.3061 66.9392 36.3888 66.8345C36.4415 66.7709 36.5355 66.726 36.6145 66.7746C36.6784 66.8158 36.6521 66.9056 36.6182 66.9654C36.5618 67.0665 36.4866 67.1563 36.4152 67.2797C36.3287 67.4219 36.3099 67.594 36.3099 67.7662C36.3099 67.9495 36.2234 67.9682 36.2271 68.073C36.2346 68.2488 36.261 68.3686 36.2271 68.4172C35.9526 68.7876 35.9451 68.8662 35.9375 69.1019C35.9338 69.2366 35.9676 69.3676 36.0541 69.4424C36.1444 69.3975 36.2271 69.3227 36.3437 69.3339C36.4678 69.3451 36.4791 69.4162 36.5054 69.5098C36.5317 69.5996 36.5806 69.6632 36.5694 69.7343C36.5543 69.8428 36.5129 69.97 36.5167 70.0972C36.5205 70.1982 36.6408 70.4751 36.6935 70.6547C36.7687 70.9091 36.8213 71.1411 36.8326 71.2945C36.8552 71.635 36.7461 71.6537 36.7235 71.8782C36.716 71.9456 36.7687 71.9867 36.8213 72.0316C36.8777 72.0803 36.9454 72.084 37.0094 72.0877C37.0733 72.0915 37.1335 72.0915 37.1636 72.1401C37.2877 72.3384 37.314 72.5555 37.3403 72.7687C37.3554 72.9146 37.4005 72.967 37.4757 73.0643C37.5622 73.1728 37.6374 73.2402 37.6638 73.3375C37.7766 73.7416 37.8744 73.9848 38.006 74.2355C38.1151 74.445 38.258 74.6583 38.3332 74.8566C38.4122 75.0624 38.4573 75.242 38.446 75.343C38.4197 75.5637 38.5062 75.7171 38.6115 75.8182C38.7506 75.9529 38.8785 76.1138 38.8635 76.2634C38.8522 76.3832 38.8221 76.4692 38.8296 76.574C38.8447 76.7611 38.9913 77.0941 39.2019 77.0866C39.3336 77.0828 39.3862 77.0529 39.4953 77.0454C39.5442 77.0417 39.6119 77.0342 39.6344 77.0791C39.6946 77.1913 39.6608 77.356 39.6344 77.5431C39.6043 77.7414 39.7059 77.9397 39.751 78.1754C39.6796 78.2502 39.6871 78.3475 39.7021 78.4336C39.7284 78.5832 39.8676 78.4897 39.9842 78.5084C40.0556 78.5196 40.1271 78.5608 40.1233 78.6431C40.1233 78.7254 40.1158 78.8526 40.1158 78.9948C40.1121 79.0846 40.1534 79.1632 40.2474 79.1894C40.3452 79.2156 40.4242 79.2044 40.5032 79.1333C40.5446 79.1744 40.5784 79.2156 40.616 79.2717C40.774 79.5112 40.774 79.7955 40.9131 79.9302C41.0974 80.1098 41.2215 79.9602 41.2629 80.0762C41.3042 80.1921 41.3005 80.2782 41.3607 80.3493C41.7743 80.8133 42.1805 81.2473 42.6769 81.6925C42.865 81.8609 43.0417 82.0106 43.2185 82.0929C43.3727 82.164 43.4742 82.3137 43.5457 82.4745C43.6247 82.6541 43.7488 82.8113 43.8578 82.8936C44.7642 83.5596 45.7082 84.1957 46.6672 84.7719C48.0173 85.5801 49.281 86.2499 50.9997 86.972C51.9512 87.3724 52.6131 87.5445 53.3878 87.7989C54.0158 88.0047 55.0313 88.2666 55.1704 88.2666C55.2682 88.2666 55.366 88.1693 55.4525 88.0384C56.2009 88.3639 57.6375 88.4537 57.8857 88.5809C57.8519 88.6782 57.8068 88.7119 57.709 88.7381C57.709 88.7381 57.724 88.8017 57.9346 88.8017C58.1452 88.8017 58.2543 88.6595 58.5702 88.6782C58.856 88.6969 59.0178 88.8653 59.1193 88.9663C59.1193 88.9663 59.4014 88.8204 59.6646 88.8503C59.8 88.8653 59.9091 88.884 59.9655 89.0112C59.9956 89.0823 60.067 89.1309 60.1798 89.1347C60.3228 89.1422 60.2964 89.0262 60.5522 89.0336C60.6575 89.0374 60.7477 89.0711 60.8418 89.0973C61.0712 89.1534 61.2291 89.1571 61.3269 89.1459C61.5074 89.1272 61.5939 89.1197 61.8985 89.1085C62.2483 89.0973 62.3461 89.2132 62.5529 89.2282C62.647 89.2357 62.7259 89.1871 62.835 89.1983C63.1246 89.2245 63.5947 89.2207 64.0272 89.2245C64.6139 89.2282 65.9828 89.1496 66.8403 89.0673C67.5924 88.9962 68.307 88.8578 69.078 88.8428C69.4804 88.8353 69.8828 88.7343 70.289 88.6445C70.3679 88.6258 70.4845 88.6707 70.5071 88.6071C70.5597 88.4761 70.3943 88.42 70.4131 88.3003C70.4206 88.2591 70.4657 88.2292 70.5409 88.2255C70.6575 88.2217 70.7478 88.2591 70.8681 88.319C71.0223 88.3976 71.2141 88.4462 71.3533 88.4462C71.515 88.4462 71.8309 88.3826 71.9512 88.3003C72.0603 88.2217 72.316 88.1918 72.5906 88.1581C72.9516 88.1132 73.324 88.001 73.6699 87.8139C73.858 87.7128 74.0347 87.6717 74.2867 87.7016C74.5237 87.7278 74.7305 87.623 74.9223 87.522C75.0577 87.4472 75.2119 87.3798 75.4263 87.3125C75.5955 87.2601 76.0054 87.2227 76.3364 87.1142C77.002 86.8934 77.7204 86.6053 78.1717 86.4332C80.2853 85.6362 81.4586 85.1835 82.7147 84.5699C83.5572 84.162 85.0765 83.2117 85.509 82.946C86.1145 82.5718 86.3816 82.3586 86.7614 82.0704C87.2541 81.7 87.7242 81.3221 88.3109 80.8619C88.7471 80.5214 89.2247 80.0874 89.8566 79.3989C90.1236 79.1071 90.2853 78.935 90.4846 78.7441C90.6727 78.5645 90.8645 78.3812 91.1014 78.138C91.6242 77.5954 91.8084 77.1502 92.4327 76.4056C92.5982 76.211 92.6885 75.9641 92.8201 75.7508C92.9555 75.5375 93.1134 75.3467 93.2601 75.1334C93.6099 74.6171 93.8468 74.1494 94.0612 73.7303C94.6291 72.634 94.7193 72.2823 94.8397 72.0017C95.0992 71.3955 95.3925 70.7782 95.5843 70.0822C95.8175 69.2404 96.1184 68.4247 96.2913 67.5491C96.3891 67.0478 96.5057 66.3256 96.5057 65.7831V65.379C96.5057 65.162 96.5358 65.0422 96.5997 64.8851C96.6449 64.7654 96.7163 64.5371 96.7163 64.3949V62.2472C96.7163 61.7047 96.596 61.2145 96.532 60.556C96.4756 59.9723 96.3402 59.2764 96.1447 59.1566C95.919 59.0182 95.9679 58.8648 95.8852 58.6777C95.84 58.5692 95.7874 58.4831 95.7912 58.2137C95.7949 58.0117 95.7648 57.8246 95.6859 57.6375C95.2421 56.6161 94.5012 55.2541 93.6061 54.0006C93.2451 53.4955 92.7863 52.9829 92.3801 52.5377C92.1808 52.3169 91.9701 52.1036 91.6881 51.9315C91.5377 51.838 91.4925 51.8342 91.4361 51.8455C91.406 51.7856 91.3195 51.7257 91.3195 51.6472V51.5162C91.045 51.2954 90.8569 50.9998 90.6275 50.7679C90.3793 50.5172 90.1537 50.3076 90.007 50.2029C89.7099 49.9896 89.503 49.8325 89.2398 49.5406C89.1119 49.4022 88.796 49.5892 88.6945 49.4321C88.5478 49.2001 88.8524 49.2562 88.5102 48.9981C88.3372 48.8671 88.2432 48.9232 88.1567 48.8185C88.0213 48.6501 87.4007 48.3171 86.9983 48.0701C86.5997 47.8232 86.5997 47.6735 86.3139 47.666C86.028 47.6586 86.0356 47.6286 85.9378 47.4752C85.84 47.3218 85.7798 47.2807 85.6256 47.2732C85.4714 47.2657 85.3135 47.1272 85.0239 46.9252C84.7306 46.7232 84.6365 46.914 84.1627 46.6034C83.6888 46.2929 82.8351 45.8252 80.729 44.8411C79.9769 44.4894 77.3894 43.5465 76.0205 43.1611C74.6478 42.7757 74.8132 42.9142 74.4672 42.7869C74.1175 42.6597 73.0344 42.3641 72.5567 42.3529C72.0791 42.3417 72.0791 42.308 71.8723 42.2481C71.6579 42.1845 71.1953 42.2407 70.902 42.1733C70.3529 42.0424 70.2025 42.1284 69.3676 42.0349C68.5327 41.9451 67.9384 41.8927 67.6 41.8889C67.2615 41.8852 67.3066 41.9338 66.8516 41.9077C66.3965 41.8815 66.4529 41.8179 66.2987 41.8366C66.1445 41.8553 66.1069 41.8964 65.9828 41.8964C65.8587 41.8964 65.8173 41.9451 65.7346 41.9077C65.5578 41.8366 65.3435 41.8328 65.1178 41.8328ZM39.1681 55.5198C39.2508 55.5235 39.1907 55.6507 39.1493 55.6881C39.1079 55.7218 38.9838 55.8752 38.7356 56.0586C38.6604 56.1147 38.5814 56.182 38.54 56.0773C38.4987 55.9725 38.6303 55.8266 38.7657 55.849C38.9387 55.8752 38.9011 55.8191 38.9048 55.7181C38.9086 55.617 39.0853 55.516 39.1681 55.5198ZM36.9605 68.9335C37.0507 68.9448 37.0733 69.0346 37.0695 69.188C37.0658 69.3638 36.983 69.4274 36.889 69.4274C36.795 69.4274 36.637 69.2927 36.6859 69.1506C36.7348 69.0084 36.795 68.9523 36.9191 68.9373C36.9342 68.9298 36.9454 68.9298 36.9605 68.9335ZM37.314 69.7268C37.3779 69.738 37.4155 70.0673 37.3817 70.2656C37.3478 70.4639 37.1297 70.3629 37.0733 70.2768C37.0169 70.1907 37.0282 70.1122 37.1034 70.0111C37.1786 69.9064 37.1899 69.7268 37.314 69.7268ZM48.2693 84.9066C48.3934 84.9066 48.4912 84.9665 48.5175 85.0638C48.5438 85.1648 48.5702 85.1311 48.6303 85.161C48.6905 85.1872 48.8297 85.1536 48.8673 85.2621C48.9049 85.3706 49.1004 85.3594 49.2509 85.423C49.4013 85.4866 50.2212 85.958 50.3603 85.9692C50.4995 85.9767 50.8906 86.1526 50.6837 86.1975C50.5634 86.2124 50.3302 86.1563 49.9278 85.9281C49.5254 85.6998 49.2396 85.625 49.0177 85.5015C48.8898 85.4267 48.8372 85.393 48.7056 85.3818C48.5664 85.3706 48.1377 85.1723 48.1001 85.06C48.0625 84.944 48.1414 84.9066 48.2693 84.9066ZM55.272 87.5407C55.381 87.5445 55.4299 87.6343 55.4337 87.7054C55.2945 87.7877 55.0275 87.6904 55.0275 87.6006C55.0275 87.5557 55.1629 87.537 55.272 87.5407ZM56.2686 87.6418C56.3438 87.638 56.4453 87.6679 56.4303 87.7353C56.3964 87.8887 56.231 87.8475 56.1746 87.7802C56.1746 87.7802 56.1558 87.7353 56.1746 87.7203C56.1896 87.7016 56.1896 87.6455 56.2686 87.6418ZM56.8252 87.6754C56.938 87.668 57.0132 87.7727 57.0057 87.8663C56.9982 87.971 56.8139 88.0271 56.7424 87.9673C56.6748 87.9074 56.6259 87.8663 56.6221 87.8064C56.6221 87.7503 56.7124 87.6867 56.8252 87.6754ZM57.4796 87.8999C57.5209 87.9074 57.5661 87.9448 57.63 88.0234C57.6262 88.0795 57.5736 88.0833 57.5097 88.1169C57.4457 88.1506 57.3743 88.0908 57.3404 88.0421C57.3291 88.0234 57.284 88.0197 57.3404 87.971C57.3968 87.9224 57.4344 87.8924 57.4796 87.8999ZM58.228 88.0496C58.307 88.0533 58.4988 88.0758 58.5777 88.1993C58.6003 88.2367 58.2355 88.2965 58.2205 88.2404C58.2054 88.1843 58.0888 88.0945 58.0888 88.0945C58.0888 88.0945 58.1452 88.0459 58.228 88.0496ZM59.1719 88.1918C59.3224 88.1843 59.6609 88.2741 59.6759 88.3527C59.6834 88.4013 59.6646 88.4051 59.4954 88.4125C59.3261 88.42 59.4014 88.3639 59.1306 88.3302C58.8598 88.2965 59.0253 88.203 59.1719 88.1918ZM65.1968 88.203C65.2494 88.2067 65.2908 88.2554 65.2795 88.3115C65.2683 88.3751 65.2306 88.4537 65.1592 88.4687C65.0915 88.4799 65.0388 88.4312 65.0388 88.3564C65.0388 88.2816 65.1216 88.2105 65.1705 88.2067C65.1818 88.203 65.1893 88.203 65.1968 88.203ZM67.1637 88.218C67.3442 88.2142 67.5548 88.2516 67.5172 88.2778C67.4006 88.3602 67.3292 88.3901 67.1336 88.3901C66.9381 88.3901 66.7688 88.3452 66.7914 88.2778C66.8027 88.2442 66.987 88.2217 67.1637 88.218ZM64.5875 88.2404C64.5913 88.2404 64.5988 88.2442 64.6139 88.2554C64.6816 88.319 64.7718 88.334 64.6816 88.4574C64.5951 88.5809 64.3205 88.521 64.1099 88.5136C63.9031 88.5061 63.6661 88.5136 63.6661 88.5136C63.6361 88.334 63.8655 88.2554 63.967 88.2554C64.0685 88.2554 64.0159 88.2778 64.3318 88.304C64.5875 88.3227 64.5612 88.2442 64.5875 88.2404ZM61.3758 88.2516C61.4623 88.2479 61.5714 88.3377 61.6278 88.3901C61.6917 88.45 61.7105 88.4761 61.7707 88.3901C61.7932 88.3602 61.812 88.3153 61.8835 88.3153C61.955 88.3115 61.9587 88.3863 61.97 88.4387C61.9775 88.4911 61.9249 88.521 61.8572 88.5023C61.8083 88.4911 61.8497 88.4724 61.7143 88.4724C61.5789 88.4761 61.5149 88.5697 61.3607 88.5734C61.2066 88.5772 61.1163 88.5098 61.1201 88.4537C61.1238 88.4013 61.2554 88.2928 61.3457 88.2554C61.3532 88.2554 61.3645 88.2516 61.3758 88.2516ZM66.1408 88.2778C66.2348 88.2741 66.2912 88.304 66.2874 88.3602C66.2837 88.4163 66.1633 88.4051 66.1257 88.4013C66.0881 88.3976 66.0693 88.3863 66.0543 88.3452C66.0355 88.3003 66.0881 88.2816 66.1408 88.2778ZM62.6206 88.3863C62.6281 88.3863 62.6357 88.3863 62.6394 88.3863C62.7146 88.4013 62.7447 88.42 62.7222 88.4986C62.6996 88.5772 62.677 88.5772 62.6319 88.5772C62.5868 88.5772 62.5454 88.5285 62.5416 88.4836C62.5379 88.4425 62.5755 88.3901 62.6206 88.3863Z" fill="#D3262A"/>
<path d="M91.9288 33.257C91.8686 33.2608 91.8197 33.3206 91.8085 33.3655C91.7596 33.5751 91.7144 33.5489 91.643 33.5526C91.2782 33.5825 91.0789 33.6125 90.7968 33.6649C88.9653 34.0053 88.6719 34.0577 88.2733 34.2822C87.7468 34.5816 87.3368 34.6227 86.7389 34.9894C85.3173 35.8575 85.039 36.198 84.2718 36.8902C82.9893 38.0463 82.0491 39.0042 81.5865 39.5991C81.3045 39.9658 81.1014 40.1192 80.5974 40.6468C80.2439 41.0134 79.8716 41.7244 79.6158 42.0499C79.7437 42.0798 79.7888 42.1584 79.7964 42.2744C79.8302 42.3342 79.8791 42.3829 79.8791 42.4428C79.8829 42.5176 79.6647 42.5475 79.6911 42.6186C79.7211 42.6972 79.755 42.7533 79.8114 42.7982C79.8641 42.8394 79.9355 42.8693 80.0408 42.888C80.1913 42.9179 80.1837 42.656 80.3078 42.671C80.3793 42.6785 80.4432 42.7196 80.5335 42.7758C80.7366 42.903 80.8795 42.9254 81.0487 42.9329C81.1277 42.9367 81.1841 42.9067 81.2631 42.8618C81.5564 42.6897 81.8836 42.5587 82.2522 42.3043C82.444 42.1734 82.5117 42.0723 82.7185 41.8778C82.8389 41.7655 83.0156 41.6608 83.215 41.6495C83.3127 41.642 83.4519 41.6645 83.6023 41.6757C83.6813 41.6832 83.8129 41.6121 83.8618 41.5373C83.9822 41.3577 84.0649 41.1893 84.4222 40.89C84.5651 40.7702 84.6854 40.6655 84.7456 40.5383C84.8584 40.3025 85.0014 40.3063 85.1744 40.2127C85.4489 40.0631 85.3925 39.9546 85.4489 39.7563C85.4827 39.6328 85.588 39.5018 85.667 39.4532C85.9754 39.2661 86.1823 39.0379 86.3891 38.8021C86.4681 38.7123 86.6148 38.7049 86.6636 38.7385C86.7201 38.7797 86.7727 38.8358 86.8404 38.8358C86.9307 38.8358 86.9984 38.7947 87.0322 38.7236C87.051 38.6824 87.0435 38.63 87.0059 38.5664C86.9833 38.5253 86.9607 38.4804 86.9607 38.398C87.1037 38.3195 87.2278 38.2334 87.3218 38.181C87.4384 38.1137 87.4309 37.9528 87.5963 37.9528C87.7204 37.9528 88.1605 38.1586 88.4764 38.3494C88.5892 38.4205 88.7697 38.4579 88.8148 38.6412C88.8412 38.746 88.8562 38.7423 88.9427 38.7535C88.9653 38.8246 88.8562 38.847 88.8976 38.9368C89.0292 39.2137 89.0706 39.3484 89.0706 39.5542C89.0706 39.7039 89.033 39.8423 88.9878 39.9808C88.9314 40.1566 88.9013 40.3512 88.8863 40.5644C88.8224 41.5485 88.7622 42.2033 88.7735 43.0601C88.7735 43.2023 88.9615 43.135 89.033 43.2397C89.0706 43.2921 89.0931 43.3669 89.0931 43.4867C89.0931 43.7149 89.0405 43.8234 88.9653 43.8683C88.8825 43.917 88.8712 43.9881 88.8712 44.0741V44.568C88.8712 44.6653 88.8412 44.7588 88.8111 44.9272C88.7434 45.2976 88.7359 45.249 88.7359 46.7344C88.7359 46.9103 88.8562 46.9252 88.9277 46.9327C88.8712 46.7195 88.86 46.1694 88.9728 46.1919C89.0894 46.2143 89.1608 46.3116 89.1759 46.4351C89.1872 46.5286 89.1082 46.6297 89.0442 46.697C89.3376 46.8467 89.3827 47.0861 89.5256 47.0861C89.6497 47.0861 89.7438 46.8579 89.9356 46.8354C90.086 46.8167 90.101 46.9477 90.0183 47.0263C89.8528 47.1834 89.7588 47.4117 89.7776 47.6436C89.7927 47.8382 89.898 47.9879 90.0785 48.1413C90.259 48.2947 90.2891 48.4032 90.3831 48.5229C90.7103 48.9345 91.1353 49.0842 91.3384 49.3311C91.5151 49.5444 91.5903 49.5032 91.9363 49.6828C92.0868 49.7614 92.177 49.7352 92.3124 49.6566C92.523 49.5406 92.6283 49.5556 92.6923 49.6043C92.79 49.6753 92.8389 49.7128 92.9442 49.739C93.0044 49.7539 93.042 49.7277 93.1135 49.6716C93.2075 49.5968 93.3053 49.5743 93.3993 49.6417C93.4482 49.6754 93.4971 49.7539 93.6061 49.6005C93.6475 49.5444 93.6738 49.4733 93.7829 49.4696C93.8807 49.4658 93.828 49.5407 93.9371 49.5332C94.0386 49.4995 93.9596 49.4284 93.986 49.3199C94.0085 49.2226 94.0424 49.1665 94.095 49.2787C94.1402 49.3798 94.1853 49.4396 94.2417 49.4658C94.3282 49.5107 94.4523 49.4658 94.4749 49.4022C94.5351 49.2488 94.5125 49.0393 94.7607 48.8709C94.7306 48.5454 94.7457 48.2835 94.8058 48.0964C94.9149 47.7447 95.0766 47.262 95.1481 46.9178C95.2007 46.6558 95.2835 46.2555 95.3211 46.1096C95.3737 45.915 95.3662 45.3837 95.4677 45.1854C95.6182 44.8973 95.6783 44.6204 95.7536 44.1564C95.7949 43.8945 95.7611 43.554 95.8325 43.4305C95.9717 43.1948 95.9943 42.6822 96.0168 42.237C96.062 41.3427 96.171 41.455 96.1673 41.0396C96.1673 40.9124 96.1108 40.8114 96.1108 40.6093C96.1108 39.1314 96.171 38.1661 95.8137 36.7367C95.6558 36.1044 95.4264 35.4983 95.1029 34.967C94.9187 34.6639 94.8171 34.5067 94.7156 34.3982C94.599 34.2747 94.4824 34.2111 94.2417 34.0615C93.7791 33.7771 93.8205 33.6723 93.5422 33.5638C93.4557 33.5751 93.3429 33.6237 93.1586 33.6087C92.7223 33.5788 92.5531 33.4853 92.2786 33.4553C92.1657 33.4441 92.1018 33.373 92.0491 33.3131C92.0078 33.2682 91.9664 33.2533 91.9288 33.257Z" fill="#D3262A"/>
<path d="M40.1459 34.3309C40.0632 34.3272 39.9842 34.3758 39.9128 34.417C39.8413 34.4581 39.7698 34.4993 39.7021 34.4955C39.4389 34.4806 39.2997 34.4918 38.8748 34.5067C38.0963 34.5404 37.2689 34.6938 36.8552 34.8697C36.7762 34.9034 36.6897 34.9445 36.6183 35.0044C36.5694 35.0455 36.5242 35.0867 36.4866 35.1204C36.449 35.1541 36.4189 35.1765 36.4114 35.1802C36.3287 35.2102 36.2422 35.2364 36.167 35.2663C36.0918 35.2962 36.0316 35.3224 35.9977 35.3561C35.7834 35.5582 35.6781 35.6704 35.4298 35.8687C35.0575 36.1606 34.6814 36.632 34.3392 37.0398C34.1925 37.212 33.9932 37.5038 33.7525 37.8031C33.6058 38.0314 33.493 38.4654 33.4028 38.9481C33.3125 39.4308 33.2448 39.9695 33.1959 40.3998C33.1094 41.1968 32.9928 43.4268 33.0003 44.901C33.0041 46.0422 33.1809 47.1572 33.2523 48.493C33.2862 49.1628 33.3952 49.7839 33.4855 50.2815C33.5231 50.4873 33.5946 50.6407 33.9067 50.9026C33.8804 50.9363 33.8578 50.9662 33.8428 50.9887C33.824 51.0149 33.8164 51.0411 33.824 51.0673C33.8353 51.1122 33.8616 51.1383 33.8766 51.1608C33.8954 51.1832 33.9029 51.1982 33.9029 51.2207C33.8992 51.2656 33.8804 51.2918 33.8691 51.3254C33.8541 51.3591 33.8465 51.3928 33.8653 51.4414C33.8992 51.5237 33.9142 51.5986 33.9255 51.6659C33.9368 51.7333 33.9481 51.7931 33.9782 51.838C34.0195 51.8979 34.106 51.9653 34.185 52.0326C34.2226 52.0663 34.2602 52.0962 34.2828 52.1224C34.3091 52.1486 34.3204 52.1748 34.3204 52.186C34.3166 52.2833 34.2753 52.3319 34.2339 52.3731C34.2151 52.3955 34.1925 52.4143 34.1775 52.4404C34.1624 52.4666 34.1549 52.4966 34.1587 52.534C34.2151 52.9007 34.3505 53.1439 34.5573 53.3684C34.7679 53.5966 34.9485 53.8735 34.971 54.0456C34.9861 54.1541 35.035 54.214 35.1027 54.2402C35.1703 54.2664 35.2531 54.2626 35.3433 54.2514C35.4261 54.2439 35.4975 54.2364 35.5502 54.2177C35.5765 54.2065 35.5991 54.1953 35.6141 54.1766C35.6292 54.1579 35.6405 54.1354 35.6442 54.1092C35.6555 53.9857 35.6292 53.8698 35.663 53.7351C35.6781 53.6864 35.6969 53.6565 35.7194 53.6378C35.7458 53.6191 35.7758 53.6116 35.821 53.6116C35.8548 53.6116 35.8736 53.6191 35.8999 53.6265C35.9263 53.634 35.9526 53.6453 35.9977 53.649C36.0579 53.6527 36.1106 53.6303 36.1632 53.6041C36.2159 53.5779 36.2647 53.5555 36.3136 53.5517C36.4039 53.548 36.4904 53.5966 36.5694 53.649C36.6484 53.7014 36.7198 53.7575 36.7913 53.7612C36.8514 53.765 36.8928 53.7276 36.9154 53.6864C36.9379 53.6452 36.953 53.5966 36.9718 53.5742C37.0169 53.5106 37.0395 53.4469 37.062 53.3833C37.0846 53.3197 37.1072 53.2599 37.1523 53.2075C37.2839 53.0503 37.4156 52.8857 37.5547 52.65C37.66 52.4666 37.739 52.2496 37.7127 51.9989C37.6863 51.7595 37.6638 51.5237 37.6675 51.2506C37.6675 51.1608 37.6412 51.1047 37.5961 51.0635C37.551 51.0224 37.4945 50.9962 37.4306 50.9475C37.3215 50.8652 37.299 50.753 37.2727 50.6407C37.2538 50.5584 37.2388 50.4723 37.2012 50.3863V50.3825C37.1335 50.289 37.0508 50.2029 36.9868 50.1206C36.9229 50.0383 36.874 49.956 36.8665 49.8774C36.8627 49.8325 36.8853 49.7839 36.9191 49.739C36.953 49.6941 37.0019 49.6492 37.047 49.6192C37.0997 49.5818 37.1448 49.5407 37.1824 49.492C37.2162 49.4434 37.235 49.3835 37.2275 49.3124C37.2125 49.1665 37.1824 49.0318 37.1937 48.8522C37.1937 48.8148 37.2012 48.7774 37.2087 48.7512C37.2125 48.74 37.22 48.7325 37.2238 48.725C37.2275 48.7212 37.235 48.7175 37.2426 48.7212C37.2839 48.725 37.3103 48.7512 37.3366 48.7774C37.3479 48.7886 37.3629 48.8036 37.378 48.8111C37.393 48.8223 37.4118 48.826 37.4306 48.8223C37.4945 48.8073 37.5246 48.7624 37.5359 48.7138C37.5472 48.6651 37.5397 48.6165 37.5359 48.5828C37.5096 48.407 37.4532 48.3396 37.408 48.0702C37.2313 47.0375 37.126 45.3874 37.126 43.8796C37.126 43.2435 37.1561 42.7234 37.1974 42.1173C37.2162 41.8479 37.3328 41.6421 37.3667 41.4774C37.4607 41.006 37.5171 40.5009 37.6337 40.0781C37.6826 39.8985 37.754 39.7488 37.8556 39.6365C37.9571 39.528 38.085 39.4569 38.2467 39.4345C38.3971 39.4158 38.5551 39.3746 38.6717 39.311C38.6792 39.3297 38.683 39.3484 38.6905 39.3671C38.7018 39.3896 38.7206 39.412 38.7507 39.4195C38.8936 39.4382 38.9537 39.4233 39.0064 39.4008C39.059 39.3784 39.1004 39.3484 39.2245 39.3297C39.2847 39.3222 39.3486 39.3335 39.4013 39.3896C39.4502 39.442 39.5179 39.5056 39.5893 39.5056C39.7698 39.5093 39.988 39.412 40.2362 39.427C40.5634 39.4457 40.6649 39.6178 40.8154 39.7675C40.8492 39.8012 40.9056 39.8274 40.9695 39.8536C41.0335 39.8797 41.1012 39.9059 41.1614 39.9359C41.9812 40.3512 42.2106 40.6954 42.5679 41.0771C43.903 42.4952 44.2076 42.7309 45.0839 43.4792C45.5314 43.8609 45.9677 44.3435 46.6785 44.6503C46.859 44.7289 46.9493 44.8823 47.1298 44.9684C47.22 45.0133 47.3141 45.0058 47.393 45.0021C47.4683 44.9946 47.5284 44.9908 47.5811 45.0095C47.5698 45.0357 47.5585 45.0657 47.551 45.0919C47.5435 45.1293 47.5397 45.1555 47.5397 45.1555L47.536 45.1704L47.551 45.1742C47.6714 45.1966 47.7654 45.1742 47.8443 45.133C47.9233 45.0919 47.991 45.0357 48.0662 44.9908C48.2204 44.901 48.3596 44.8112 48.5288 44.8187C48.6153 44.8225 48.6905 44.8112 48.7319 44.7738C48.7545 44.7551 48.7657 44.7289 48.762 44.699C48.7582 44.6691 48.7394 44.6391 48.7056 44.6092C48.6492 44.5568 48.6003 44.4895 48.5965 44.4221C48.5965 44.3697 48.604 44.3435 48.6341 44.3136C48.6642 44.2874 48.7131 44.2612 48.7883 44.2201C48.8034 44.2126 48.8184 44.1939 48.8372 44.1752C48.856 44.1564 48.8711 44.1303 48.8899 44.1003C48.9237 44.0442 48.95 43.9806 48.95 43.9245C48.95 43.8272 48.9237 43.7711 48.9049 43.7262C48.8861 43.6813 48.8673 43.6513 48.8673 43.5989C48.8673 43.554 48.8786 43.5241 48.8899 43.5017C48.9011 43.483 48.9162 43.468 48.935 43.4605C48.9726 43.4418 49.0215 43.4381 49.0591 43.3969C49.1531 43.2884 49.2283 43.2136 49.2923 43.1574C49.3825 43.0751 49.4427 43.0377 49.4841 43.0078C49.5029 42.9928 49.5179 42.9816 49.5292 42.9629C49.5405 42.9479 49.5442 42.9292 49.5442 42.903C49.5442 42.7646 49.5254 42.7009 49.5029 42.6635C49.4841 42.6224 49.469 42.6111 49.469 42.555C49.469 42.3717 49.3938 42.3081 49.3449 42.2332C49.2208 42.0349 49.0365 41.874 48.9199 41.6832C48.7921 41.4774 48.6868 41.2118 48.4837 40.9349C48.0061 40.2876 47.6262 39.6253 47.111 39.1165C46.9869 38.993 46.9079 38.8732 46.8289 38.7535C46.7499 38.63 46.6634 38.5028 46.5243 38.3681C46.4228 38.2671 46.3099 38.1998 46.2121 38.1249C46.1144 38.0501 46.0241 37.9678 45.9602 37.8443C45.915 37.7582 45.8549 37.7059 45.7947 37.661C45.7345 37.6198 45.6743 37.5824 45.6217 37.53C45.4149 37.313 45.1516 37.0885 44.8582 36.8602C44.6326 36.6881 44.3957 36.5385 44.1625 36.3439C44.0121 36.2204 43.7112 36.052 43.478 35.9099C42.3234 35.199 41.4885 34.8173 40.6236 34.4581C40.4092 34.387 40.2437 34.3346 40.1459 34.3309Z" fill="#D3262A"/>
<path d="M42.0151 53.4955C43.0456 52.9305 43.7639 52.5788 45.1479 51.7744C46.0317 51.258 46.7951 50.809 47.7918 50.3451C48.1077 50.1954 48.4762 50.057 48.6605 50.4573C48.841 50.8427 48.9651 51.1907 49.0667 51.5499C49.2923 52.3431 49.1532 52.5302 48.7921 52.7584C48.2543 53.0952 47.5097 53.4656 46.9907 53.6826C46.7989 53.7649 46.7613 53.9857 46.8215 54.2027C47.1299 55.3851 47.3217 56.8031 47.5924 58.1314C47.6789 58.5542 47.7542 58.8798 47.6714 59.1304C47.5774 59.4111 47.3969 59.5869 47.1562 59.7104C47.0509 59.7665 46.9268 59.8039 46.8027 59.8601C45.7158 60.339 45.6932 59.9012 45.6406 59.5757C45.366 57.8845 45.1103 56.5263 44.7643 54.9361C44.6928 54.6031 44.328 54.7303 44.1362 54.8313C43.7902 55.0109 43.2487 55.3289 42.7146 55.5909C42.2821 55.8004 42.1392 55.6994 42.0339 55.3926C41.9286 55.0783 41.8233 54.7303 41.718 54.3337C41.5638 53.7537 41.6767 53.6789 42.0151 53.4955Z" fill="white"/>
<path d="M54.817 47.9617C54.7605 47.9654 54.7041 47.9692 54.6402 47.9729C54.3469 48.0028 54.1588 48.0627 54.0497 48.1937C53.9407 48.3246 53.9219 48.5117 53.9557 48.7774C54.0874 49.8101 54.219 50.7492 54.3544 51.8979C54.4183 52.4329 54.5086 53.215 54.4183 53.7986C54.3769 54.0718 54.298 54.2925 54.1663 54.431C54.0347 54.5694 53.8542 54.633 53.5947 54.5956C53.5308 54.5881 53.4668 54.5432 53.4066 54.4759C53.3465 54.4085 53.2863 54.3113 53.2374 54.199C53.1359 53.9708 53.0569 53.664 53.0193 53.3571C52.8463 51.9914 52.6357 50.854 52.5266 49.3461C52.5153 49.1665 52.4664 49.0318 52.3762 48.9383C52.2859 48.8447 52.158 48.7886 52.0001 48.7661C51.8045 48.7399 51.5262 48.7699 51.2216 48.8223C50.917 48.8746 50.586 48.9457 50.2927 49.0056C50.161 49.0318 50.067 49.0767 49.9956 49.1403C49.9241 49.2039 49.8865 49.29 49.8639 49.391C49.8226 49.5893 49.8602 49.8512 49.8978 50.1842C50.0821 51.8006 50.2513 53.2112 50.4394 54.7191C50.5522 55.6283 50.6424 56.3168 50.8042 56.878C50.9696 57.443 51.2103 57.8845 51.6315 58.2998C52.1204 58.7788 53.0381 58.8199 53.8429 58.5917C54.5687 58.3859 55.2908 57.9968 55.7684 57.1699C56.2461 56.3467 56.483 55.0895 56.2649 53.1513C56.0994 51.7071 55.8926 50.3339 55.6481 48.7661C55.6218 48.609 55.6331 48.3845 55.5165 48.2086C55.4563 48.1226 55.366 48.0477 55.2231 48.0028C55.1141 47.9729 54.9824 47.9579 54.817 47.9617Z" fill="white"/>
<path d="M59.5255 46.8467C59.4541 46.8467 59.3864 46.8467 59.3187 46.8504C58.6869 46.8729 58.134 46.9365 57.4759 47.0151C57.3442 47.03 57.254 47.0787 57.1976 47.146C57.1412 47.2134 57.1224 47.2957 57.1299 47.3742C57.348 50.8203 57.4796 54.1878 57.4721 57.5815C57.4721 57.8509 57.5022 58.0192 57.5812 58.124C57.6602 58.2288 57.7843 58.255 57.9385 58.2512C58.2619 58.2437 58.559 58.1951 58.8486 58.1315C59.0253 58.0903 59.1269 58.0155 59.1833 57.907C59.2397 57.8022 59.2472 57.675 59.266 57.5291C59.3262 57.0464 59.33 56.56 59.3713 56.0773C59.4052 55.647 59.4353 55.3776 59.4729 55.1905C59.5105 55.0035 59.5519 54.895 59.612 54.779C59.6308 54.7453 59.676 54.7154 59.7249 54.7116C59.7737 54.7079 59.8226 54.7228 59.8565 54.7752C60.5635 55.8004 61.1276 56.9304 61.7783 57.7498C61.8685 57.8621 61.9588 57.9145 62.049 57.9294C62.1393 57.9407 62.2296 57.9182 62.3236 57.892C62.711 57.7872 63.0156 57.6151 63.2224 57.4206C63.2976 57.3495 63.3428 57.2223 63.3541 57.0726C63.3653 56.9229 63.3428 56.7508 63.2638 56.5899C62.8877 55.8154 62.5003 55.0035 62.1431 54.3038C62.4026 54.0044 62.6583 53.7051 62.8313 53.3983C63.4631 52.2721 63.4857 50.9887 63.3428 49.9186C63.2149 48.9607 62.8614 48.3658 62.4477 47.8607C62.1431 47.4865 61.6354 47.2283 61.0938 47.0637C60.5823 46.9028 60.022 46.8467 59.5255 46.8467ZM59.3375 49.1328C59.4804 49.1403 59.6384 49.2077 59.7512 49.2787C60.1724 49.5294 60.6162 50.1281 60.6199 51.187C60.6199 51.5574 60.6011 51.9989 60.3717 52.3319C60.2025 52.5789 59.7963 52.8296 59.5218 52.7173C59.2623 52.6125 59.2171 52.3581 59.1871 51.9765C59.1156 51.1009 59.0742 50.2628 59.0554 49.4845C59.0517 49.3611 59.0629 49.2189 59.1306 49.1777C59.1758 49.1515 59.2247 49.1366 59.2773 49.1328C59.2961 49.1328 59.3149 49.1328 59.3375 49.1328Z" fill="white"/>
<path d="M65.3322 46.4388C65.1178 46.4351 64.9636 46.5174 64.8621 46.6484C64.7643 46.7831 64.7192 46.9627 64.7154 47.1647C64.644 50.5397 64.5387 53.4731 64.4634 56.6273C64.4597 56.7059 64.4672 56.777 64.4785 56.8331C64.4935 56.893 64.5161 56.9416 64.5575 56.9716C64.6402 57.0314 64.7831 57.0427 64.9599 57.0464C65.1366 57.0464 65.3435 57.0352 65.5353 57.024C65.7421 57.0127 65.8963 56.9491 65.9903 56.8107C66.0844 56.6722 66.1145 56.4664 66.1069 56.1709C66.0768 55.3477 66.0392 54.5358 66.058 53.7837L66.1408 53.7799C66.6259 54.5096 66.9982 55.2579 67.3668 55.9389C67.6225 56.4103 67.8557 56.6797 68.1942 56.7508C68.7433 56.8668 69.1419 56.7995 69.3337 56.6498C69.4766 56.5375 69.5594 56.2794 69.612 56.0025C69.6647 55.7256 69.6872 55.4225 69.691 55.2205C69.7437 52.6649 69.8113 50.5322 69.879 47.958C69.8828 47.827 69.8866 47.6698 69.8753 47.5277C69.864 47.3855 69.8339 47.2583 69.7587 47.1834C69.503 46.944 69.2059 46.9514 68.9276 46.944C68.7696 46.9402 68.6004 46.944 68.4612 47.0113C68.3258 47.0787 68.228 47.2171 68.2243 47.4491C68.213 48.609 68.2506 49.7988 68.2168 50.9288L68.0701 50.9251C67.9385 50.5584 67.788 50.1356 67.6526 49.6828C67.3668 48.7063 67.1186 47.7933 67.017 47.4192C66.9757 47.2657 66.9117 47.1161 66.8478 46.9926C66.7839 46.8691 66.7199 46.7719 66.6711 46.7232C66.5244 46.5773 66.2987 46.5099 66.058 46.4763C65.8173 46.4426 65.5503 46.4426 65.3322 46.4388Z" fill="white"/>
<path d="M72.3575 46.9476C72.1695 46.9476 72.0303 46.9551 71.9288 46.9738C71.8272 46.9925 71.7633 47.0262 71.7106 47.0786C71.6053 47.1834 71.5264 47.4228 71.5264 47.6286C71.5076 50.1916 71.5565 52.8669 71.5489 55.6657C71.5489 56.0997 71.6843 56.3429 71.9288 56.4739C72.1732 56.6048 72.5343 56.6273 72.978 56.6011C73.2375 56.5861 73.4181 56.515 73.5384 56.3429C73.6588 56.1708 73.7152 55.8939 73.7114 55.4786C73.6851 53.0765 73.6663 50.4498 73.6174 48.0028C73.6061 47.479 73.4557 47.217 73.2263 47.0823C72.9969 46.9514 72.6885 46.9439 72.3575 46.9476Z" fill="white"/>
<path d="M76.374 47.479C76.3101 47.479 76.2424 47.4827 76.1709 47.4902C75.7986 47.5389 75.5428 47.6025 75.3811 47.7559C75.2194 47.913 75.1592 48.1525 75.1592 48.5416V56.6647C75.1592 56.8518 75.2081 56.9865 75.2909 57.0726C75.3736 57.1586 75.494 57.1961 75.6218 57.1961H76.2612C76.4793 57.1961 76.5996 57.0913 76.6636 56.9528C76.7237 56.8144 76.735 56.6498 76.7501 56.5113C76.9043 55.213 76.893 54.0418 77.0509 52.7847L77.0998 52.7921C77.6527 54.0942 78.2018 55.3888 78.7772 56.6273C78.9426 56.9865 79.0367 57.2148 79.1532 57.3607C79.2698 57.5066 79.4127 57.559 79.6497 57.559H80.3153C80.4996 57.559 80.62 57.4318 80.6538 57.2896C80.9133 56.2644 81.0525 55.2205 81.139 54.0231C81.233 52.7435 81.2217 51.3441 81.1841 49.8699C81.1728 49.4097 81.06 49.1328 80.8456 48.957C80.4507 48.6314 80.1536 48.4631 79.7362 48.2199C79.6233 48.1525 79.4917 48.1375 79.3864 48.1749C79.2811 48.2124 79.2059 48.3134 79.2059 48.4556V52.5489H79.1683C78.6944 51.8605 78.6004 51.4451 78.3559 50.723C78.1905 50.2329 77.9159 49.6753 77.4834 48.6688C77.4045 48.4818 77.3292 48.2947 77.254 48.1076C77.175 47.9018 77.0509 47.7297 76.8704 47.6174C76.735 47.5351 76.5696 47.4827 76.374 47.479Z" fill="white"/>
<path d="M89.1083 51.8978C88.8262 51.6322 88.4652 51.4339 88.1079 51.243C87.4573 50.8913 86.8555 50.6631 85.6784 50.6631C83.8732 50.6631 83.0984 51.8118 82.7111 52.8968C82.4741 53.5666 82.3952 54.1989 82.414 54.7752C82.4591 56.1708 82.9179 56.8929 83.3956 57.5589C83.892 58.2474 84.4486 58.6103 85.3775 59.0219C86.1033 59.3437 86.8593 59.6842 87.8672 59.7104C88.0627 59.7141 88.168 59.7216 88.2809 59.5083C88.7811 58.5804 89.1948 57.6936 89.4994 56.9004C89.6611 56.4813 89.6385 56.1072 89.2775 55.9351C88.6419 55.6282 88.0477 55.4262 87.5287 55.2241C87.2542 55.1156 87.1714 55.3813 87.1489 55.5123C87.0511 56.1745 86.9721 56.6647 86.8179 57.2334C86.675 57.7685 86.2275 57.7572 86.0319 57.6263C85.2835 57.1174 84.757 55.8902 84.8059 54.9585C84.8284 54.5357 84.9375 54.1615 85.1105 53.8622C85.3926 53.372 86.2876 52.9268 86.9383 52.9455C87.3595 52.9567 87.7393 53.0652 87.9725 53.1812C88.2433 53.3197 88.4727 53.4993 88.8074 53.6489C88.924 53.7013 89.0368 53.7275 89.1759 53.4843C89.2963 53.2748 89.3264 52.9605 89.3264 52.6873C89.3377 52.1972 89.3377 52.1148 89.1083 51.8978Z" fill="white"/>
<path d="M60.8456 30.8138C60.7929 30.8138 60.7252 30.8736 60.7252 30.8736C59.9693 31.5471 59.8678 32.2955 59.8678 32.2955C59.7963 32.6996 59.8791 32.9802 60.0032 33.1785C59.5857 34.0653 59.3789 34.8435 59.4353 35.3C59.4879 35.648 59.7361 35.9024 59.8903 35.9548C60.0445 36.0184 60.0709 35.8351 60.0709 35.8351C60.195 34.8884 60.4131 34.2524 60.6726 33.6275C61.4586 33.8071 62.0491 33.0475 62.2597 32.6809C62.3838 32.4638 62.4477 32.172 62.4477 31.8951C62.4477 31.5846 62.3612 31.2927 62.1732 31.158C61.6166 30.7726 60.7177 31.9924 60.3228 32.5985C60.2627 32.2917 60.4733 31.8989 60.4733 31.8989C60.4733 31.8989 60.808 31.3189 60.8569 31.2029C60.902 31.0832 60.9283 30.84 60.8719 30.8175C60.8606 30.8138 60.8531 30.8138 60.8456 30.8138ZM62.0115 31.6182C62.0791 31.6257 62.0904 31.7193 62.0904 31.7193C62.1468 32.187 61.8046 32.5387 61.6579 32.6696C61.5677 32.7557 61.2706 32.9203 60.9584 32.9577C61.2518 32.389 61.6203 31.9699 61.8234 31.7455C61.9137 31.6444 61.9738 31.6145 62.0115 31.6182Z" fill="#010101"/>
<path d="M57.0321 33.0962C56.9456 33.2982 56.7162 33.5152 56.4341 33.3806C56.1558 33.2459 55.7083 32.3404 55.7083 32.3404C55.7083 32.3404 55.5391 32.0036 55.5052 32.0111C55.5052 32.0111 55.4676 31.9438 55.445 32.3142C55.4225 32.6809 55.4488 33.3993 55.3021 33.5115C55.163 33.6238 54.9937 33.5789 54.9072 33.4479C54.8283 33.3169 54.7944 33.0064 54.8395 32.4638C54.8922 31.9176 55.0163 31.3376 55.1818 31.158C55.3435 30.9784 55.4751 31.1094 55.524 31.1543C55.524 31.1543 55.7422 31.3488 56.0994 31.9251L56.1634 32.0298C56.1634 32.0298 56.4906 32.5724 56.5244 32.5724C56.5244 32.5724 56.5507 32.5985 56.5733 32.5798C56.6071 32.5686 56.5921 32.3965 56.5921 32.3965C56.5921 32.3965 56.5244 31.8053 56.2273 30.8026C56.2273 30.8026 56.1822 30.6791 56.2123 30.5594C56.2423 30.4396 56.3627 30.4957 56.3627 30.4957C56.3627 30.4957 56.8215 30.7277 57.0472 31.4723C57.269 32.2169 57.1186 32.8904 57.0321 33.0962Z" fill="#010101"/>
<path d="M59.7474 31.4909C59.4202 31.5658 58.5665 31.6069 58.5665 31.6069L58.4574 31.9437C58.4574 31.9437 58.8861 31.9063 59.1983 31.9399C59.1983 31.9399 59.2998 31.9287 59.3111 32.0522C59.3149 32.1682 59.2998 32.2954 59.2998 32.2954C59.2998 32.2954 59.2923 32.3702 59.1832 32.3889C59.0667 32.4076 58.2618 32.4376 58.2618 32.4376L58.1302 32.8753C58.1302 32.8753 58.0813 32.9764 58.1904 32.9464C58.2919 32.9202 59.1344 32.7631 59.2434 32.7855C59.36 32.8155 59.4916 32.9726 59.454 33.1148C59.4089 33.2907 58.5665 33.8257 58.055 33.7883C58.055 33.7883 57.7842 33.807 57.5586 33.4441C57.348 33.0998 57.6375 32.445 57.6375 32.445C57.6375 32.445 57.5022 32.142 57.5999 32.0372C57.5999 32.0372 57.6563 31.9848 57.8256 31.9736L58.0324 31.5471C58.0324 31.5471 57.7993 31.562 57.6564 31.3899C57.5247 31.2253 57.5134 31.1504 57.615 31.1055C57.7203 31.0532 58.7019 30.8736 59.375 30.8997C59.375 30.8997 59.6082 30.8773 59.8113 31.2814C59.8188 31.2851 59.9166 31.4498 59.7474 31.4909Z" fill="#010101"/>
<path d="M44.5499 28C44.4634 28 44.3769 28 44.2904 28.0037C43.982 28.015 43.572 28.0786 43.2486 28.1684C43.0192 28.232 42.865 28.3293 42.7522 28.5201C42.6995 28.6174 42.6469 28.7184 42.6732 28.8232C42.6958 28.913 42.8236 28.9429 42.9289 28.9616C43.0267 28.9766 43.2524 28.9878 43.3125 28.9167C43.3389 28.8868 43.3351 28.8568 43.3125 28.8157C43.29 28.7745 43.2336 28.7483 43.1772 28.7371C43.117 28.7259 42.9966 28.7184 42.9703 28.7072C42.9553 28.6997 42.9365 28.6922 42.9365 28.6922C42.9365 28.6922 42.944 28.6847 42.9515 28.681C42.9628 28.6698 43.0079 28.6548 43.0342 28.6473C43.0681 28.6398 43.1057 28.6286 43.1471 28.6174C43.4103 28.5463 43.9368 28.5313 44.1738 28.5425C45.1065 28.5762 45.9715 28.782 46.8515 29.1412C47.7127 29.4929 48.6868 30.0916 49.2584 30.8212C49.4728 31.0981 49.7436 31.5508 49.7774 31.9325C49.8075 32.2804 49.6947 32.6172 49.4803 32.8604C49.3186 33.0437 49.1042 33.1822 48.8673 33.2907C48.3333 33.5414 47.6864 33.5938 47.1035 33.5788C47.0282 33.5788 46.7387 33.5526 46.671 33.5414C46.5544 33.5227 46.4039 33.4927 46.4039 33.4927L46.3663 31.7042C46.3663 31.7042 46.5469 31.7117 46.6747 31.7192C47.0019 31.7379 47.6751 31.8502 48.0136 31.9811C48.085 32.011 48.1603 32.0522 48.1678 32.1233C48.1715 32.1794 48.1302 32.2243 48.0813 32.2655C48.0587 32.2879 48.0361 32.3029 48.0061 32.3179C47.9496 32.3478 47.8481 32.4002 47.8406 32.4077C47.8218 32.4338 47.8218 32.4675 47.8481 32.4862C47.912 32.5349 48.1226 32.5648 48.1791 32.5611C48.3671 32.5498 48.5551 32.4226 48.6529 32.2505C48.7394 32.0971 48.7507 31.9811 48.6905 31.8165C48.6304 31.6331 48.4386 31.461 48.2355 31.3563C47.9873 31.2328 47.5585 31.1392 47.3366 31.1018C47.1636 31.0756 46.9794 31.0494 46.8139 31.0457C46.6409 31.042 46.3626 31.0494 46.3626 31.0494C46.3626 31.0494 46.3588 30.8062 46.3475 30.6453C46.3287 30.3797 46.2573 29.8596 46.0128 29.7099C45.9677 29.6837 45.915 29.68 45.885 29.7212C45.8361 29.781 45.7909 30.0167 45.7796 30.0766C45.7608 30.1889 45.6969 30.7164 45.7007 30.7988C45.7007 30.8811 45.6931 31.1056 45.6894 31.113C45.6856 31.1168 45.6856 31.1168 45.6819 31.1205C45.6706 31.128 45.5164 31.1542 45.4186 31.1692C45.208 31.1991 44.6965 31.3637 44.5348 31.4386C44.3129 31.5359 43.9857 31.708 43.8955 31.9325C43.8278 32.0934 43.8541 32.2318 43.9406 32.3852C44.0534 32.5798 44.2001 32.7332 44.3618 32.8866C44.4182 32.9427 44.6815 33.1597 44.7454 33.2046C44.9673 33.3655 45.2193 33.5264 45.4863 33.6536C45.5728 33.6948 45.6781 33.7472 45.6781 33.7472C45.6781 33.7472 45.6969 33.953 45.7195 34.0727C45.742 34.2224 45.7947 34.3496 45.9338 34.4094C46.0166 34.4469 46.1144 34.4394 46.2084 34.4244C46.2836 34.4094 46.3362 34.3758 46.3663 34.3122C46.3776 34.286 46.4002 34.2111 46.4039 34.1849C46.4115 34.1213 46.4115 34.0353 46.4115 34.0353C46.4115 34.0353 46.6334 34.0877 46.7838 34.1138C47.22 34.1924 47.6939 34.1999 48.1076 34.1513C48.7131 34.0764 49.4239 33.8519 49.879 33.4591C50.0031 33.3543 50.2099 33.1073 50.2964 32.9502C50.3491 32.8604 50.3942 32.7669 50.4431 32.6546C50.4544 32.6322 50.5145 32.4488 50.5258 32.3702C50.5333 32.3366 50.5672 32.0747 50.5521 31.9362C50.5559 31.8763 50.5221 31.7267 50.5183 31.7005C50.5145 31.6967 50.4995 31.6219 50.4882 31.5733C50.4769 31.5209 50.4055 31.3488 50.3904 31.3188C50.3415 31.2328 50.3115 31.1617 50.2776 31.0869C50.1234 30.78 49.8037 30.3909 49.5442 30.1365C49.4126 30.0055 49.2283 29.8409 49.0854 29.7286C49.0177 29.6725 48.5852 29.3545 48.51 29.3058C48.2768 29.1524 47.8556 28.9204 47.5924 28.7932C47.2238 28.6174 46.7161 28.4228 46.3325 28.3068C45.727 28.1235 45.1516 28.0075 44.5499 28ZM45.6668 31.7304C45.6668 31.7304 45.6593 31.9961 45.6593 32.2617C45.6555 32.7706 45.6706 33.2832 45.6706 33.2832C45.6706 33.2832 45.4901 33.2196 45.3772 33.1747C45.0576 33.04 44.6213 32.7669 44.4107 32.591C44.3581 32.5498 44.1775 32.374 44.1437 32.3366C44.0873 32.273 44.0384 32.2093 44.0534 32.127C44.0685 32.0485 44.2189 31.9849 44.2979 31.9587C44.5499 31.8689 44.9861 31.794 45.2193 31.7678C45.4036 31.7491 45.6668 31.7304 45.6668 31.7304Z" fill="#010101"/>
<path d="M51.7745 28.419C51.5826 28.4265 51.3871 28.4751 51.2366 28.5388C50.9809 28.6473 50.744 28.8044 50.5635 28.999C50.3829 29.1898 50.2476 29.4293 50.2588 29.6874C50.2626 29.7698 50.2964 29.9007 50.3378 29.9755C50.3754 30.0392 50.4394 30.1065 50.4544 30.1739C50.4619 30.2113 50.4544 30.2637 50.4582 30.3086C50.4619 30.4133 50.507 30.5218 50.586 30.5929C50.6424 30.6416 50.6951 30.6416 50.7515 30.5967C50.7665 30.5854 50.7929 30.5555 50.8079 30.5331C50.8342 30.4882 50.8568 30.432 50.8831 30.4058C50.8869 30.4021 50.9019 30.4096 50.917 30.4208C50.9283 30.4283 51.026 30.4545 51.0524 30.4545C51.105 30.4582 51.1614 30.4732 51.2141 30.4769C51.3871 30.4919 51.624 30.4358 51.7782 30.3759C52.1242 30.2412 52.395 30.0466 52.6658 29.7698C52.8237 29.6089 52.9629 29.3432 52.914 29.1037C52.8877 28.984 52.835 28.9017 52.7335 28.8156C52.6846 28.7745 52.5605 28.7071 52.4777 28.6959C52.4514 28.6922 52.4213 28.6884 52.41 28.6809C52.395 28.6735 52.3875 28.6547 52.3724 28.6398C52.3122 28.5612 52.1919 28.4901 52.1054 28.4602C52.0039 28.4265 51.891 28.4153 51.7745 28.419ZM51.3908 28.9803C51.3908 28.9803 51.3344 29.0252 51.2855 29.0663C51.1276 29.201 50.9207 29.4143 50.8042 29.5714C50.7402 29.6575 50.665 29.7698 50.665 29.7698C50.665 29.7698 50.65 29.7361 50.6387 29.7099C50.5672 29.534 50.7252 29.332 50.8681 29.2122C50.9546 29.1374 51.1313 29.0214 51.2479 28.999C51.3006 28.9915 51.3908 28.9803 51.3908 28.9803ZM52.316 29.0327C52.3536 29.0327 52.3837 29.0401 52.4288 29.0588C52.4965 29.0888 52.5492 29.1486 52.5567 29.2272C52.5868 29.4742 52.301 29.6874 52.1054 29.7959C51.9061 29.9045 51.6955 29.9718 51.4661 29.9868C51.3758 29.9943 51.1426 29.9943 51.1351 29.9718C51.1313 29.9643 51.1502 29.9419 51.169 29.9194C51.199 29.8783 51.2404 29.8221 51.2818 29.7698C51.4548 29.549 51.7707 29.2721 51.9926 29.1449C52.0678 29.1 52.1054 29.0888 52.1844 29.0626C52.2408 29.0401 52.2784 29.0327 52.316 29.0327ZM51.169 30.9409C51.1088 30.9521 51.0749 31.0382 51.0561 31.0831C50.996 31.2365 50.9508 31.6032 50.9395 31.7192C50.9019 32.0671 50.8756 32.8903 50.9358 33.3093C50.9621 33.4852 51.0185 33.5975 51.199 33.6349C51.2705 33.6498 51.4021 33.6461 51.4623 33.6087C51.5112 33.5787 51.5488 33.5151 51.5601 33.4628C51.5939 33.3168 51.5789 33.111 51.5751 32.9539C51.5676 32.7706 51.5638 32.5872 51.5526 32.4001C51.5413 32.1532 51.5112 31.5171 51.4435 31.2327C51.4134 31.1093 51.3645 30.997 51.2404 30.9521C51.2254 30.9484 51.2103 30.9409 51.199 30.9409C51.1878 30.9409 51.1765 30.9409 51.169 30.9409Z" fill="#010101"/>
<path d="M53.5382 31.8576C53.5495 31.8576 53.5533 31.8614 53.5683 31.8614C53.7789 31.8913 53.9857 31.9287 54.1475 31.9998C54.2941 32.0634 54.3806 32.1457 54.4596 32.2917C54.58 32.5124 54.5875 32.823 54.4784 33.0587C54.3957 33.2346 54.2189 33.3805 54.0572 33.4591C53.888 33.5414 53.7225 33.5788 53.5307 33.6012C53.196 33.6387 52.8387 33.5676 52.5378 33.4254C52.3611 33.3393 52.1429 33.1897 52.0339 32.9988C51.9549 32.8604 51.9549 32.6771 52.0527 32.5424C52.2069 32.3291 52.5416 32.2842 52.7936 32.2917C52.9854 32.2992 53.3314 32.359 53.5119 32.4226C53.5608 32.4413 53.7488 32.5124 53.7789 32.5461C53.8015 32.5686 53.8165 32.6022 53.8052 32.6322C53.7639 32.7594 53.4555 32.8267 53.3652 32.838C53.1283 32.8754 53.0042 32.7856 52.7296 32.6771C52.6619 32.6509 52.5717 32.6209 52.504 32.6172C52.3799 32.606 52.2332 32.6396 52.2069 32.7743C52.1956 32.8417 52.2783 32.909 52.3385 32.9352C52.4852 32.9988 52.6018 33.0213 52.7447 33.0213C53.1696 33.0288 53.6435 32.9577 53.9895 32.7145C54.0384 32.6808 54.0835 32.6322 54.0835 32.5686C54.0835 32.4413 53.8654 32.3665 53.8654 32.3665C53.6322 32.2692 53.1997 32.2243 52.9778 32.2056C52.7447 32.1869 52.3799 32.157 52.2896 32.142C52.1993 32.1308 52.1016 32.1121 52.0226 32.0747C51.9436 32.041 51.8684 31.9587 51.8421 31.8726C51.8007 31.7155 51.8534 31.5209 51.9399 31.3937C52.173 31.0644 52.7146 30.9372 53.117 30.8886C53.5081 30.8399 54.1437 30.8399 54.5273 31.0457C54.5875 31.0756 54.6176 31.1056 54.6063 31.1692C54.58 31.2889 54.4897 31.3637 54.3844 31.3974C54.2716 31.4348 54.0346 31.4461 53.9293 31.4535C53.4667 31.4797 52.9026 31.4648 52.4626 31.5845C52.4288 31.5957 52.3686 31.6107 52.3498 31.6331C52.2821 31.708 52.4777 31.7304 52.519 31.7379C52.5303 31.7417 52.5341 31.7417 52.5453 31.7417L53.5382 31.8576Z" fill="#010101"/>
<path d="M67.3067 29.5865C67.0585 29.5865 66.2724 29.5902 66.1107 29.5902H66.0167L66.0581 29.8559L66.122 29.8596C66.1859 29.8634 66.3025 29.8746 66.4191 29.8858C66.5094 29.897 66.5808 29.9083 66.626 29.9195C66.6335 30.0205 66.641 30.2525 66.6448 30.5107C66.6485 30.7913 66.6485 31.0757 66.6485 31.158V31.3675C66.6485 31.6107 66.6485 32.0148 66.6448 32.3852C66.641 32.7257 66.6335 33.0101 66.626 33.141C66.4718 33.1635 66.201 33.1972 66.122 33.2084L66.0656 33.2159L66.0129 33.4853L66.1182 33.4778C66.2612 33.4666 66.7764 33.4553 67.0434 33.4553C67.2879 33.4553 67.8971 33.4666 68.0663 33.4778L68.1754 33.4853L68.1077 33.2159L68.0513 33.2084C67.9009 33.1934 67.5887 33.1635 67.4383 33.141C67.4345 33.0961 67.4308 33.0363 67.427 32.9278C67.4232 32.7856 67.4195 32.606 67.4195 32.4189C67.4157 32.041 67.412 31.6257 67.412 31.4012V31.1804C67.412 30.9559 67.412 30.6529 67.4157 30.3909C67.4195 30.1664 67.427 30.0093 67.4345 29.9195C67.6451 29.927 67.8783 29.9494 68.0175 30.0168C68.2657 30.1365 68.4086 30.3647 68.4086 30.6603C68.4086 31.0345 68.2619 31.2553 68.0889 31.3937C67.9159 31.5359 67.7204 31.592 67.6263 31.6145L67.5737 31.6257L67.5398 31.9138L67.6414 31.8988C67.852 31.8689 68.4387 31.7305 68.8185 31.36C69.0442 31.1393 69.2134 30.8474 69.2134 30.4658C69.2134 30.3161 69.142 29.9494 68.6342 29.7436C68.3484 29.6314 67.8971 29.5865 67.3067 29.5865Z" fill="#010101"/>
<path d="M71.8347 29.579L71.7181 29.5939C71.6842 29.5977 71.5413 29.6052 71.3796 29.6089C71.2179 29.6127 71.0336 29.6164 70.8982 29.6164C70.6876 29.6164 70.4582 29.6127 70.2664 29.6089C70.0783 29.6052 69.9242 29.5977 69.8828 29.5939L69.77 29.5827L69.8377 29.8596L69.8941 29.8671C69.9843 29.8783 70.2589 29.912 70.3905 29.9307C70.398 30.0317 70.4055 30.2674 70.4093 30.5331C70.4131 30.8212 70.4131 31.1131 70.4131 31.1991V31.5097C70.4131 31.7678 70.4131 32.1383 70.4093 32.475C70.4055 32.7818 70.398 33.0288 70.3905 33.1485C70.2513 33.171 69.9618 33.2084 69.8941 33.2121L69.8301 33.2159L69.7775 33.489L69.8828 33.4815C70.037 33.4703 70.5372 33.4591 70.7177 33.4591C70.8832 33.4591 71.1051 33.4628 71.3006 33.4665C71.4962 33.4703 71.6692 33.4778 71.7181 33.4815L71.8309 33.4927L71.7632 33.2196L71.7068 33.2121C71.609 33.2009 71.3495 33.1747 71.2104 33.1485C71.2066 33.1148 71.2028 33.0849 71.2028 33.0063C71.1991 32.8978 71.1953 32.7594 71.1953 32.5985C71.1916 32.2804 71.1878 31.8913 71.1878 31.5471V31.2216C71.1878 30.8998 71.1878 30.5855 71.1916 30.3385C71.1953 30.2151 71.1953 30.1103 71.1991 30.028C71.2028 29.9756 71.2028 29.9569 71.2066 29.927C71.3909 29.9045 71.6165 29.8708 71.703 29.8633L71.7594 29.8559L71.8347 29.579Z" fill="#010101"/>
<path d="M72.5004 29.5753L72.5418 29.8521L72.5982 29.8634C72.7073 29.8821 72.8314 29.9045 72.9179 29.9307C73.0345 30.0504 73.2526 30.3311 73.4858 30.6416C73.7114 30.941 73.9484 31.259 74.1364 31.4947C74.0273 31.6332 73.7716 31.9774 73.4858 32.3403C73.3353 32.5312 73.1811 32.722 73.057 32.8716C72.9931 32.9465 72.9367 33.0101 72.8878 33.0587C72.8427 33.1036 72.8051 33.1336 72.79 33.1448C72.7035 33.1785 72.5832 33.1972 72.4779 33.2121L72.429 33.2196L72.335 33.4928L72.4591 33.4815C72.5945 33.4703 72.7411 33.4591 73.0382 33.4591C73.3391 33.4591 73.7415 33.4815 73.8393 33.4815H73.9333L73.8957 33.2159L73.8318 33.2084C73.7641 33.2009 73.6249 33.1747 73.5046 33.1523C73.6136 32.9465 73.7791 32.6621 73.9596 32.3815C74.0612 32.2243 74.159 32.0747 74.2417 31.9549C74.2981 31.8726 74.332 31.8315 74.3658 31.7866C74.4937 31.9362 74.7231 32.2243 75.0352 32.5798C75.3775 32.9689 75.7799 33.3955 76.1635 33.6798L76.1898 33.6237V33.6948L76.2312 33.6125V33.6948L76.5809 33.6125L76.502 33.5115C76.1296 33.0325 75.1782 31.6781 74.8397 31.2216C74.9375 31.1018 75.1782 30.8137 75.4339 30.5219C75.5693 30.3647 75.7009 30.2151 75.8062 30.1028C75.8589 30.0467 75.904 29.9981 75.9378 29.9681C75.9529 29.9532 75.9679 29.9382 75.9792 29.9307C75.983 29.927 75.983 29.927 75.983 29.927C76.0657 29.9083 76.2049 29.8821 76.3102 29.8559L76.3666 29.8409L76.3929 29.579L76.2951 29.5865C76.1635 29.5977 75.9642 29.6089 75.7423 29.6089C75.4527 29.6089 75.1669 29.5977 75.0503 29.5865L74.945 29.579L74.9976 29.8484L75.054 29.8559C75.1029 29.8634 75.2195 29.8858 75.3135 29.9045C75.1593 30.1739 74.7983 30.6828 74.6215 30.9148C74.5426 30.8175 74.4072 30.6304 74.2492 30.4022C74.1552 30.2675 74.0649 30.1365 73.9935 30.028C73.9521 29.9681 73.9408 29.9457 73.9145 29.9045C74.0085 29.8858 74.0988 29.8671 74.2455 29.8521L74.2981 29.8447L74.3771 29.5753L74.2643 29.5827C74.0461 29.594 73.6964 29.6052 73.4143 29.6052C73.1736 29.6052 72.9856 29.6014 72.8464 29.5977C72.7073 29.594 72.6208 29.5865 72.602 29.5865L72.5004 29.5753Z" fill="#010101"/>
<path d="M79.928 29.5828L79.8264 29.5902C79.6798 29.6015 79.1344 29.6127 78.9125 29.6127C78.826 29.6127 78.3747 29.6015 78.2168 29.5902L78.1265 29.5828L78.1378 29.8522L78.2055 29.8596C78.307 29.8709 78.4274 29.8933 78.5289 29.912C78.4688 30.0729 78.2243 30.7202 77.9385 31.4536C77.7881 31.839 77.6339 32.2318 77.506 32.5461C77.3856 32.8455 77.2879 33.0587 77.2465 33.1411C77.1149 33.1673 76.972 33.1934 76.8328 33.2084L76.7689 33.2159L76.7313 33.489L76.8328 33.4816C76.9494 33.4741 77.3142 33.4628 77.4496 33.4628C77.6 33.4628 78.0964 33.4741 78.2582 33.4816L78.3635 33.489L78.3108 33.2196L78.2506 33.2122C78.1265 33.2009 77.9949 33.1785 77.8783 33.1523C77.9122 32.954 77.9799 32.6584 78.0551 32.3778C78.0964 32.2244 78.1378 32.0822 78.1717 31.9699C78.1867 31.9138 78.2017 31.8689 78.213 31.8352C78.2168 31.8277 78.2168 31.8277 78.2168 31.8203C78.4236 31.7941 79.1307 31.7604 79.3488 31.7567C79.3676 31.7978 79.3977 31.8614 79.4353 31.9699C79.4842 32.1009 79.5444 32.2618 79.6008 32.4264C79.7061 32.722 79.7963 32.9877 79.8565 33.1485C79.7174 33.1747 79.5707 33.1972 79.4165 33.2084L79.3601 33.2122L79.345 33.2683L79.2924 33.4853L79.4014 33.4778C79.5368 33.4703 80.1536 33.4591 80.3041 33.4591C80.447 33.4591 80.6538 33.4628 80.8306 33.4666C80.9208 33.4703 81.0036 33.4703 81.0675 33.4741C81.1314 33.4778 81.1841 33.4816 81.1841 33.4816L81.2931 33.4965L81.2555 33.2196L81.1954 33.2122C81.0487 33.1934 80.9095 33.171 80.7704 33.1448C80.5297 32.6846 80.2063 31.8352 80.0558 31.4349C79.864 30.911 79.6045 30.1814 79.5218 29.9158C79.6196 29.8971 79.7249 29.8746 79.8339 29.8634L79.8941 29.8559L79.928 29.5828ZM78.8035 30.1627C78.9238 30.5144 79.1269 31.0944 79.2473 31.4311L78.3447 31.4124C78.386 31.2964 78.45 31.1131 78.5477 30.8512C78.638 30.6155 78.7245 30.376 78.8035 30.1627Z" fill="#010101"/>
<path d="M82.9066 29.594L81.6505 29.6015L81.6881 29.8671L81.752 29.8746C81.8122 29.8784 81.9326 29.8896 82.0492 29.9008C82.1432 29.9083 82.2109 29.9195 82.2598 29.927C82.2598 29.9307 82.2598 29.9307 82.2598 29.9382C82.2635 29.9756 82.2635 30.0243 82.2673 30.0767C82.271 30.1889 82.2748 30.3274 82.2748 30.4733C82.2786 30.7614 82.2786 31.0607 82.2786 31.1543V31.158V31.1617V31.4798C82.2786 31.7567 82.2786 32.1533 82.2748 32.4975C82.271 32.6696 82.271 32.8305 82.2673 32.9577C82.2635 33.055 82.2598 33.1037 82.256 33.1486C82.1018 33.1785 81.8197 33.2084 81.7558 33.2122L81.6956 33.2159L81.6392 33.489L81.7445 33.4816C81.8536 33.4741 82.429 33.4629 82.6471 33.4629C82.8916 33.4629 83.4444 33.4741 83.5648 33.4816L83.6701 33.489L83.6174 33.2159L83.5572 33.2122C83.5008 33.2084 83.3805 33.1935 83.2677 33.1822C83.1774 33.171 83.1135 33.1598 83.0646 33.1486C83.0495 32.8792 83.0382 32.1458 83.0382 31.824V31.7641C83.1398 31.7604 83.2827 31.7529 83.4407 31.738C83.4783 31.7866 83.5572 31.8764 83.6926 32.0261C83.8468 32.1944 84.0424 32.4152 84.253 32.6359C84.4598 32.8567 84.678 33.0775 84.8698 33.2571C85.0616 33.4367 85.212 33.5714 85.3324 33.6237L85.3549 33.635L85.7686 33.5714L85.6633 33.4591C85.3925 33.1785 85.0353 32.6883 84.7419 32.258C84.5952 32.041 84.4636 31.839 84.3658 31.6856C84.2831 31.5546 84.2417 31.4835 84.2229 31.4424C84.411 31.3264 84.5915 31.1842 84.7193 31.0158C84.866 30.8287 84.96 30.6229 84.96 30.4284C84.96 30.1066 84.7494 29.8709 84.4448 29.7549C84.0574 29.594 83.4181 29.594 82.9066 29.594ZM83.0721 29.912C83.4745 29.9233 83.7528 30.0131 83.9145 30.1328C84.0913 30.2637 84.1552 30.4246 84.1552 30.5706C84.1552 30.81 84.0687 30.9821 83.9559 31.1056C83.8431 31.2291 83.7002 31.3039 83.5949 31.3451C83.403 31.4162 83.2188 31.4237 83.0458 31.4274V31.3563C83.0458 31.0046 83.0571 30.1777 83.0721 29.912Z" fill="#010101"/>
<path d="M64.3356 32.127C64.5205 32.127 64.6703 31.9779 64.6703 31.794C64.6703 31.6101 64.5205 31.461 64.3356 31.461C64.1508 31.461 64.0009 31.6101 64.0009 31.794C64.0009 31.9779 64.1508 32.127 64.3356 32.127Z" fill="#010101"/>
<path d="M54.0384 60.2156C53.3013 60.2231 52.6281 60.2904 52.1617 60.369C49.6758 60.7993 47.1335 61.2969 44.7604 62.0527C44.452 62.15 44.0233 62.3708 43.6359 62.6626C43.2486 62.9545 42.8988 63.3212 42.7521 63.7178C42.5114 64.38 42.5453 65.6859 42.8085 67.5118C43.0605 69.2554 43.3651 71.2011 43.76 73.3637C44.2753 76.1962 44.6814 79.0286 45.5314 81.659C45.7006 82.1865 45.8962 82.5308 46.1444 82.744C46.3926 82.9573 46.6935 83.0321 47.0658 83.0321H49.6645C49.924 83.0321 50.1196 82.9797 50.2625 82.89C50.4092 82.7964 50.4994 82.6655 50.5559 82.5046C50.6649 82.1865 50.6273 81.7675 50.5559 81.3409C50.3716 80.2109 50.2813 79.1483 50.2813 77.4159C50.2813 77.2962 50.3152 77.2214 50.3641 77.1802C50.4129 77.139 50.4844 77.1278 50.5634 77.139C50.7251 77.1652 50.9282 77.2925 51.0636 77.4608C51.3945 77.8799 51.6352 78.2765 51.9511 78.7629C52.2144 79.1745 52.4964 79.5711 52.7898 79.9602C53.4818 80.8844 53.9143 81.5654 54.2866 82.0443C55.0801 83.0733 55.3697 83.5485 56.2986 84.54C57.1298 85.4268 58.1001 85.4043 58.7733 85.206C59.217 85.0751 59.642 84.8805 59.9918 84.7346C60.1384 84.6747 60.24 84.5999 60.3039 84.5138C60.3679 84.4278 60.3942 84.3342 60.3942 84.2369C60.3942 84.0386 60.2964 83.8254 60.1949 83.6233C58.7357 80.6599 57.2539 77.8051 55.7759 74.9203C57.2313 73.794 57.9722 73.1579 58.8297 72.2076C59.3336 71.6501 60.0256 70.4116 60.3566 69.0945C60.6988 67.7326 60.7778 65.7532 60.4431 64.1406C60.2475 63.1977 59.6044 62.2062 58.9387 61.6112C58.3859 61.1211 57.6901 60.7768 56.9305 60.5486C56.1407 60.3129 55.2155 60.2193 54.3505 60.2119C54.2527 60.2156 54.1437 60.2156 54.0384 60.2156ZM51.8157 65.2855C53.4517 65.2855 54.1174 66.4903 54.1174 67.8224C54.1174 70.1197 52.5491 71.9606 50.9733 72.5817C50.27 72.8586 49.9353 72.5293 49.8676 71.6688C49.6984 69.435 49.6119 68.1703 49.5968 66.2546C49.5968 66.1648 49.6194 66.1199 49.6721 66.06C50.1158 65.5774 51.041 65.2855 51.8157 65.2855Z" fill="white"/>
<path d="M64.8019 59.1829C66.2385 58.8611 68.3145 58.6591 70.4582 58.6591C71.5376 58.6591 73.3804 58.6216 74.1288 58.8798C74.6214 59.0519 75.0163 59.3475 75.0126 59.8227L75.0013 61.3156C74.9975 61.8507 74.6967 62.2248 73.9896 62.2211C73.0005 62.2174 72.5944 62.1762 71.782 62.1762C71.0035 62.1762 70.3491 62.1313 69.9392 62.3895C69.6684 62.5616 69.5067 62.7524 69.4766 63.396L69.2322 68.4696C69.2171 68.7914 69.4315 69.072 69.7549 69.0683C70.8794 69.0533 71.9174 69.0197 72.9516 68.9673C73.245 68.9523 73.5308 69.2404 73.5308 69.6595V71.9344C73.5308 72.2263 73.3277 72.3797 72.9629 72.4508L69.5029 73.1168C69.1043 73.1916 68.9614 73.5134 68.9463 73.8913L68.6831 80.5701C68.6718 80.8994 68.826 80.9518 69.1043 80.9331C70.5334 80.832 71.4247 80.6711 73.2224 80.5813C74.0611 80.5402 74.2867 80.6749 74.5199 81.2848C74.7004 81.7637 74.6666 82.744 74.4973 83.208C74.2754 83.8179 73.1998 83.8927 72.222 84.0012C70.5409 84.1845 67.867 84.2743 65.5879 84.4165C64.1663 84.5026 63.3164 84.4165 62.9441 83.8553C62.7071 83.4961 62.583 82.9348 62.5266 82.0743C62.064 75.1784 62.0527 68.2264 62.0527 61.3867C62.049 60.3091 63.1058 59.5645 64.8019 59.1829Z" fill="white"/>
<path d="M78.6043 59.5795C76.7051 59.5795 75.9416 59.8601 75.9416 60.4737C75.9191 68.4472 75.9003 74.0933 75.8777 80.9031C75.8739 82.1491 76.6223 82.512 78.5855 82.0929C80.6163 81.6589 82.1658 81.2024 83.4896 80.7235C84.2568 80.4466 84.9451 80.181 85.607 79.8629C85.9304 79.7058 86.2162 79.5486 86.472 79.4139C87.0925 79.0847 87.2768 78.9312 87.7657 78.5982C89.2963 77.5618 90.5374 75.9117 91.1542 74.8529C92.3577 72.78 92.3389 71.1786 92.3389 69.536C92.3389 67.9533 92.0794 67.4669 91.7898 66.6699C91.6168 66.191 91.4889 66.0563 91.3046 65.7233C90.9586 65.0984 90.5788 64.4773 89.6461 63.5568C88.7021 62.6214 87.7544 61.8955 86.1673 61.1135C84.0199 60.0547 82.0831 59.5795 78.6043 59.5795ZM80.5975 63.9123C80.9586 63.916 81.6506 64.1443 82.1846 64.4511C83.7604 65.3491 83.8394 65.7457 84.2982 66.3032C85.9078 68.2676 85.6935 71.65 85.0842 73.5732C84.475 75.4889 83.4746 76.9295 81.5791 77.5805C80.6878 77.8873 80.1538 77.6516 80.1462 77.0829C80.0898 72.8137 79.9544 68.8812 79.9544 64.4922C79.9507 64.2266 80.1801 63.9048 80.5975 63.9123Z" fill="white"/>
</g>
<defs>
<filter id="filter0_d_21_17" x="0.903164" y="0.182742" width="127.91" height="125.423" filterUnits="userSpaceOnUse" color-interpolation-filters="sRGB">
<feFlood flood-opacity="0" result="BackgroundImageFix"/>
<feColorMatrix in="SourceAlpha" type="matrix" values="0 0 0 0 0 0 0 0 0 0 0 0 0 0 0 0 0 0 127 0" result="hardAlpha"/>
<feOffset dy="4.27958"/>
<feGaussianBlur stdDeviation="16.0484"/>
<feComposite in2="hardAlpha" operator="out"/>
<feColorMatrix type="matrix" values="0 0 0 0 1 0 0 0 0 1 0 0 0 0 1 0 0 0 0.5 0"/>
<feBlend mode="normal" in2="BackgroundImageFix" result="effect1_dropShadow_21_17"/>
<feBlend mode="normal" in="SourceGraphic" in2="effect1_dropShadow_21_17" result="shape"/>
</filter>
</defs>
</svg>
